<?xml version="1.0" encoding="utf-8"?>
<!-- Generator: Adobe Illustrator 17.1.0, SVG Export Plug-In . SVG Version: 6.00 Build 0)  -->
<!DOCTYPE svg PUBLIC "-//W3C//DTD SVG 1.1//EN" "http://www.w3.org/Graphics/SVG/1.1/DTD/svg11.dtd">
<svg version="1.1" id="Layer_1" xmlns="http://www.w3.org/2000/svg" xmlns:xlink="http://www.w3.org/1999/xlink" x="0px" y="0px"
	 viewBox="0 0 612 792" enable-background="new 0 0 612 792" xml:space="preserve">
<path fill="#231F20" d="M502.6,702H109.4C49,702,0,653,0,592.6V199.4C0,139,49,90,109.4,90h393.3C563,90,612,139,612,199.4v393.3
	C612,653,563,702,502.6,702z"/>
<path fill="#FFFFFF" d="M283.4,313h54.9v-24.9v-24.4v-4.1c0-23.5,0.6-59.8,17.7-82.2c18-23.8,42.7-40,85.2-40
	c69.2,0,98.4,9.9,98.4,9.9l-13.7,81.3c0,0-22.9-6.6-44.2-6.6s-40.5,7.6-40.5,29v8.6v28.5V313h87.5l-6.1,79.4h-81.4v275.9H338.3
	V392.4h-54.9L283.4,313L283.4,313z"/>
</svg>
