<?xml version="1.0" encoding="utf-8"?>
<!-- Generator: Adobe Illustrator 17.1.0, SVG Export Plug-In . SVG Version: 6.00 Build 0)  -->
<!DOCTYPE svg PUBLIC "-//W3C//DTD SVG 1.1//EN" "http://www.w3.org/Graphics/SVG/1.1/DTD/svg11.dtd">
<svg version="1.1" id="Layer_1" xmlns="http://www.w3.org/2000/svg" xmlns:xlink="http://www.w3.org/1999/xlink" x="0px" y="0px"
	 viewBox="0 0 612 792" enable-background="new 0 0 612 792" xml:space="preserve">
<path fill="#231F20" d="M502.9,701.4H110.3C50,701.4,1.1,652.6,1.1,592.3V199.7C1.1,139.4,50,90.6,110.3,90.6h392.6
	c60.3,0,109.1,48.9,109.1,109.1v392.6C612,652.6,563.1,701.4,502.9,701.4z"/>
<line fill="none" stroke="#FFFFFF" stroke-width="7.3611" stroke-miterlimit="10" x1="0" y1="356.8" x2="612" y2="356.8"/>
<circle fill="#231F20" stroke="#FFFFFF" stroke-width="5.5225" stroke-miterlimit="10" cx="306.7" cy="405.5" r="130.6"/>
<circle fill="#FFFFFF" stroke="#FFFFFF" stroke-width="7.3611" stroke-miterlimit="10" cx="306.7" cy="405.5" r="82.7"/>
<path fill="none" stroke="#FFFFFF" stroke-width="14" stroke-miterlimit="10" d="M528.7,264.5h-42.8c-20.7,0-37.4-16.8-37.4-37.4
	v-42.8c0-20.7,16.8-37.4,37.4-37.4h42.8c20.7,0,37.4,16.8,37.4,37.4V227C566.2,247.7,549.4,264.5,528.7,264.5z"/>
<path fill="#FFFFFF" d="M138.2,258h-9.1c-6.8,0-12.4-5.6-12.4-12.4V103c0-6.8,5.6-12.4,12.4-12.4h9.1c6.8,0,12.4,5.6,12.4,12.4
	v142.6C150.6,252.4,145.1,258,138.2,258z"/>
<path fill="#FFFFFF" d="M180.7,258h-9.1c-6.8,0-12.4-5.6-12.4-12.4V103c0-6.8,5.6-12.4,12.4-12.4h9.1c6.8,0,12.4,5.6,12.4,12.4
	v142.6C193.1,252.4,187.5,258,180.7,258z"/>
<path fill="#FFFFFF" d="M223,258h-9.1c-6.8,0-12.4-5.6-12.4-12.4V103c0-6.8,5.6-12.4,12.4-12.4h9.1c6.8,0,12.4,5.6,12.4,12.4v142.6
	C235.4,252.4,229.9,258,223,258z"/>
</svg>
