<?xml version="1.0" encoding="utf-8"?>
<!-- Generator: Adobe Illustrator 17.1.0, SVG Export Plug-In . SVG Version: 6.00 Build 0)  -->
<!DOCTYPE svg PUBLIC "-//W3C//DTD SVG 1.1//EN" "http://www.w3.org/Graphics/SVG/1.1/DTD/svg11.dtd">
<svg version="1.1" id="Layer_1" xmlns="http://www.w3.org/2000/svg" xmlns:xlink="http://www.w3.org/1999/xlink" x="0px" y="0px"
	 viewBox="12.3 76.3 587.3 526.5" enable-background="new 12.3 76.3 587.3 526.5" xml:space="preserve">
<path fill="#FFFFFF" d="M548.8,585.6H63.2c-28.1,0-50.8-26.4-50.8-59V135.4c0-32.6,22.7-59,50.8-59h485.7c28.1,0,50.8,26.4,50.8,59
	v391.2C599.7,559.2,576.9,585.6,548.8,585.6z"/>
<g>
	<g id="fH22wW_4_">
		<g>
			<path d="M260.9,327.3c-3.2-0.1-5.7,1.9-8.6,2.7c-2.3,0.7-4.7,1.9-7.3-0.9c21.7-16.2,46.4-23.8,72.8-28.2
				c-1.6,3.9-1.6,3.9,3.1,7.6c-6.9,4.1-13.7,8.2-20.7,12.3c-1.1,0.6-2.8,2.9-3.5,0.7c-1.7-5.5-5.2-2.6-7-1.2
				c-14.3,11.2-32.5,14-47.9,22.7c-1.1,0.6-3.1,0.8-2.6,2.5c0.5,1.6,2.2,2.4,4.2,1.9c2.2-0.6,4.4-2.2,8.8-0.7
				c-13.7,3.5-23.7,10.8-34.4,17c4.1-0.5,7.7-2.6,11-4.6c6.3-3.8,12-3.1,18.9-0.9c8.6,2.9,13,7.9,13.3,16.8c0.1,2.1,0.7,4,2,6.1
				c4.7-2.8,10.2-4.1,14-8.2c1.2-1.2,3.2-1.1,3.4-0.3c1.2,4.8,6.4,2.5,9.1,5.4c2.9,3.3,7.3,5.3,11.2,7.6c1.7,1,1.9,2.1,2.1,4
				c0.5,6.4,8.5,12.3,14.3,11.2c5-0.9,7.9-3.8,8.5-8.6c0.7-5.2-1.8-9.1-6.1-11.9c-5.1-3.3-10.6-5.9-13.7-11.9
				c-0.6-1.2-5.8-1.9-8.3-4.3c3.3-4,11.1-3.7,11.3-9c0.2-4.7-1.8-9.9-4.9-15.8c10.9,4.3,19.4,9.9,27.3,16.5c0.5,0.4,0.7,1,1.2,1.2
				c7,2.9,8.5,9.8,11.2,15.7c2.3,5,6.4,5.8,11.3,5c4.3-0.7,7.4-2.9,8.5-7.2c1.2-5,0.3-10-4.2-12.6c-6.4-3.9-11.1-9.6-16.8-14.1
				c-1.6-1.2-1.3-4.5-4.7-4.2c3.4-2.8,6.8-5.7,10.2-8.5c1.4-1.2,2.8-0.9,4.2-0.1c6.4,4,13,7.7,19,12.2c2.8,2.1,2.2,6.8,5.1,9.6
				c4.3,4.2,8.1,5.4,13,2.7c4.6-2.5,6.2-7.3,4.3-12.7c-1.1-3.2-2.8-6.1-5.9-7.4c-7.8-3.3-13.4-9.6-20.4-13.9
				c-3.6-2.2-2.1-3.3-0.1-4.9c2.8-2.3,6.1-3.8,7.8-7.1c1.1-0.7,2.2-1.3,3.3-2c2.6-0.8,4.6-2.9,6.2-4.8c3.5-4.3,6.4-3.8,9.9-0.2
				c2.3,2.4,5.4,4.1,7.6,6.6c2.2,2.5,4.6,4.7,3.7,9.2c-0.9,5,2.9,9.4,6.6,12.3c3.5,2.8,8,2,11.3-1.5c3.3-3.3,3.6-9.5,0.8-13.7
				c-5.7-8.4-11.3-16.9-18.5-24c-3.2-3.1-0.9-3.6,0.6-4.7c4.1-3.3,9.5-2,14-3.3c0.7-0.2,1.4-0.2,2.2-0.4
				c-1.3-7.2-5.7-12.5-10.6-17.3c-5.4-5.4-18.5-5-24.4-0.1c-1,0.9-1.9,1.9-3.4,1.7c-8.9-1.4-14.7,4.5-21.1,8.8
				c-2.2,1.5-3.7,6.1-7.8,1.5c-1.6-1.7-5.3,1.5-7.2,3.3c-2.5,2.3-8.2,3.3-4.6,9c0.8,1.2-0.7,1.5-1.3,2c-3.9,2.9-7.3,4.5-13.1,4.8
				c-10.1,0.5-20.6,1.9-30.6,4.7c-28.9,8-56.2,20-83.1,32.8c-21.7,10.3-43.8,20.1-68,22.1c-22.5,1.9-45.1,1.6-65-11.2
				c-11.7-7.5-21.6-17.1-23.4-31.9c-2.1-17.9,6.5-30.8,25.7-39.6c20.9-9.7,43.2-14.7,65.9-18.6c29.2-5,57.9-11.7,84.5-25.3
				c15.7-8,30.8-17,46.7-24.4c27-12.8,55.8-18.2,85.7-19c39.6-1,78.5,2.9,116.1,16.4c13.9,5,25.9,13,35.5,24.4
				c10.9,12.8,9.4,22.7-4.9,31.7c-13,8.2-27.5,13.4-41.7,19c-11.2,4.4-22.7,8-34.8,11.2c5,6.9,10.9,12,15.9,18
				c3.4,4,7.1-1.6,10.1-3.5c1.2-0.8,1.2-2,3.2-1.2c1.8,0.7,4-0.5,3.2-2.3c-1.4-3.2,0.3-2,1.8-1.9c1.4,0.1,2.3-0.9,3.3-2.7
				c0.2-0.4,0.9-0.5,1.4-0.8c6.4-3.2,12.3-6.8,16.1-14.5c0.9,4.9-0.8,7.6-3.2,10.1c-8.4,8.7-18.2,15.2-29.4,19.8
				c-1.2,0.5-5.1,0.5-3.6,2.9c1.9,2.8,3.2,6.9,7,7.7c2.1,0.4,4-1.2,3.7-4.3c-0.1-0.9,1.6-1.9,2.4-2.9c-1.9,2.6-0.6,3.6,1.9,2.6
				c4.5-1.9,8.8-4.3,13.2-6.4c-3.1-1-6-1.6-8.8-0.1c2.6-0.4,4.4-2.1,6.4-3.5s3.6-2.9,6.4-0.5c2.6,2.3,8-0.7,7.8-4.2
				c-0.2-1.6,0.4-1.2,1.3-1.5c8.8-1.6,17.1-6.1,26.5-4.3c2.3,0.5,4-1.7,6.2-2.2c0.2,5.8-10.9,3-8,11.3c-5.4-4.1-9.8,0.5-15.4,1.3
				c4.5,2.7,8.5,1.9,12.6,1.8c-12,3.6-23,9.4-34.2,14.8c-4.4,2.2-9.5,8.2-17.5,3.3c7,8.9,13.6,15.8,24.2,16.1
				c12.3,0.2,20.9-6.3,25.4-17.3c5.1-12.7,10.9-24.8,19.6-35.5c4.8-5.9,3.3-12.5-2.9-17c-3.4-2.5-6.9-4.9-11.2-5.7
				c10.6-0.2,21.5,4.2,21.3,15.8c-0.1,2.3,1.7,4.1,3.1,5.8c9.6,11.1,12.3,24.4,14.2,38.6c2,15.9,2.2,32,4.9,47.8
				c0.9,5.4-1.3,10-5,13.9c-5.9,6.1-13.4,9.7-20.9,13.3c-14.5,7-30.3,9.2-45.9,12.7c-40.2,9-78.6,23.3-116.8,38.6
				c-47.5,19.2-97.1,28.9-148.3,29.5c-16.1,0.2-32-2.5-47.9-5.1c-15.4-2.5-31.1-3.8-46.6-6.4c-15.5-2.6-30.8-6-45.2-12.5
				c-6.6-3-13-6.4-17.8-11.9c-2.6-2.9-4.8-6-3.2-10.2c0.7-1.6-0.1-1.5-1.6-2.1c-2.5-0.9-4-3.6-5.2-6.3c-5.3-11.2-7.7-23.3-12-34.7
				c-3.5-9.2-4.7-18.5-4.3-28.2c0.1-2.2,0.4-4.4,0.7-7.3c2.7,4.3,3.4,8.8,5.6,12.6c5,9.1,14.4,12.6,22.3,17.8
				c13.9,8.9,29.3,13,45.9,12.4c0.1-2.7-1.9-5.2-0.5-7.6s4.3-2,6.5-2.9c4.8-1.9,8.4-5.3,9.2-10.8c0.2-1,0.2-1.1-1.9-1.2
				c-11.9-0.3-23.8-1.8-35.4-4.8c-5.1-1.3-10-3.5-15-5.2c-2.8-0.9-3.7-3.1-2.6-5.2c1.4-2.6,2.8,0.4,4,0.9
				c17.2,7.6,35.3,9.6,53.8,8.8c27-1.2,51.6-10.7,75.6-22.6c13.6-6.7,27.5-12.6,41.1-19.1c1.9-0.9,4.4-1.1,5.6-3.3
				c5.5,0.1,9.9-3.2,14.7-5C270,322.4,265.2,324.2,260.9,327.3z M222.9,459.9L222.9,459.9c-3.2-5.8-4.2-5.8-14.4,0.1
				c3.9,0.5,8.6,0.5,4.4,6.4c4.6-2.7,9.8-3.4,15.8-6.5C225.7,459.9,224.3,459.9,222.9,459.9z M148.1,392.9c-1.9-1.2-3.3,0.2-4.3,0.8
				c-10.5,6.3-22.2,9.1-33.8,12.5c-10.2,3-19.9,7.3-28,14.4c-12.4,10.9-11.9,18.8,2,27.5c1.6,1,3.3,1.9,5,2.7
				c28.1,14,58.9,15.7,89.1,20c2.3,0.3,3.3-0.9,3.8-3.1c1.3-6.1,0.7-12.3-1.7-17.8c-9-20.1-22-36.9-42-47.4c-3.6-1.9-2.6-3-0.2-4.4
				C141.3,396.2,144.6,394.6,148.1,392.9z M164.1,374.7c3.2,0.8,5.4,2.4,7.9,4.2c10.4,7.7,21.3,14.7,32,22.2
				c7.4,5.1,14.9,10.2,19.8,18.2c1,1.7,1.5,2.9,0.9,5.1c-1.6,5.7,4.3,14.9,10.2,15.1c4.2,0.2,9,0.1,11.4-4.7c2.3-4.5,2-9.1-1.2-12.8
				c-2.9-3.3-4.8-7.1-7.1-10.8c-1.2-1.9-1.6-5-3.1-6c-7.8-5.3-9.2-14.2-12.8-21.8c-0.5-0.9-0.9-2.5-0.5-3.1c0.9-1.3,2.3-0.2,3.6,0.1
				c14.2,3.6,25.4,12,35.7,21.9c2.2,2.1,4.2,3.6,4.2,7.6c0,4.7,4.5,8.5,8.5,10.4c5.4,2.6,11.3-0.3,13.6-5c2.6-5.4,1.3-11.3-3.6-14.6
				c-3.6-2.3-6.4-5.2-9.5-7.9c-4.5-3.9-7.9-9-13.7-11.6c-13.5-6.1-26.4-14-41.7-15.2c-1.4-0.1-2.6,0-2.9-1.9
				c-0.3-1.8-0.4-3.4,1.3-4.5c0.9-0.6,2.8-0.4,2.4-2.3c-3.7-0.4-13.7,2-16.7,4c-3.2,2.2-2.8,5.8-3.9,9c-0.9,2.7-4,6.3-7.4,3.8
				C182.1,367.1,173.1,371.6,164.1,374.7z M192.5,460.2c0.9,5.7-2.2,6.4-4.8,7.7c-1.7-3.1,3.8-6.2-0.4-9.3
				c-2.1,3.8,0.2,8.7-4.2,11.7C191.3,470.2,195.2,466.7,192.5,460.2z"/>
			<path d="M566.6,413.1c-1.6,5.2-9.3,10.2-14,12.2c-20.3,8.5-41,15.2-62.9,18.7c-39.2,6.1-74.1,23.7-108.2,42.7
				c-29.9,16.8-62.1,25.7-95.8,29.7c-1.6,0.2-4,1.6-4-1.9c-0.1-2.8,1.8-2.8,3.7-3c40-4.6,77.2-17.4,112.3-37.1
				c23.9-13.4,48.9-25,75.8-31.3c9.8-2.3,19.6-4.5,29.5-6.1c17.9-2.8,34.4-9.9,51.2-16.4C557.3,419.3,563.5,414.5,566.6,413.1z"/>
			<path d="M294,362.9c-10.3-6.1-23.9-6.4-24.8-21.6c3.3-1.3,7-3.6,11.4-4.3c2.7-0.5,4.3,0.1,5.2,2.8
				C288.4,347.1,291.1,354.5,294,362.9z"/>
			<path d="M333.7,337.1c-11.3-6.1-21.8-12.6-35.5-9.8c4.8-7.6,11-8.5,17.8-7.6c1.3,0.2,2.6,0.6,3.9,0.9
				C332.1,323,332.1,323.1,333.7,337.1z"/>
			<path d="M360.1,317.9c-5.7-1.9-10.7-2.6-14.2-5.2c-3.6-2.6-4.2-8.2-8-11.3c0.2-0.5,0.3-0.9,0.5-1c7.7-5.1,7.8-5.3,13,2.3
				C354.5,307.1,356.8,311.9,360.1,317.9z"/>
			<path d="M378,307.2c-1.1,0.7-2.2,1.3-3.3,2c-4.3-5-6.3-11.2-10.1-16.9c6.5,0.2,12.6,0.6,18.2,3.8c2.9,1.6,2.8,2.7,0.9,5
				C381.8,303.3,378.8,304.2,378,307.2z"/>
			<path d="M404.7,273.9c-4.8,3.4-4.1,6.8-0.7,10.7c-6-2.2-12.6-0.4-17.5-5.1c2.8-0.7,6.3-5.4,7.4-4.9
				C397.9,276.1,400.8,274,404.7,273.9z"/>
			<path d="M282.2,331.4c0.2,0.9-0.9,1-1.6,1.5c-4,2.2-7.9,4.3-11.9,6.5c-1.7,1-2.9,0.3-3.7-1.1c-0.9-1.6,0.7-1.8,1.6-2.3
				c4-2.2,8.1-4.1,11.9-6.5C280.7,328.2,281.4,329.1,282.2,331.4z"/>
			<path d="M353.8,363.9c1.4,0.5,4.1-1.1,3.7,2.4c-0.4,3.4-2,5.7-5.7,5.7c-1.9,0-4.7-0.7-4.1-2.7
				C348.5,366.7,349.8,363.5,353.8,363.9z"/>
			<path d="M319.3,390.2c-0.2,3.2-2.1,4.8-5.1,4.8c-2,0-4.7-0.5-4.3-3.2c0.3-2.3,1.8-4.7,4.9-4.4
				C316.8,387.6,319.2,387.1,319.3,390.2z"/>
			<path d="M384.1,343.4c2.2,0.1,4.3-0.2,3.9,2.4c-0.5,2.9-2.4,4.7-5.2,5c-1.2,0.2-3.6-0.6-3-2.4
				C380.5,346.3,380.5,342.7,384.1,343.4z"/>
			<path d="M276.9,406.9c1.8,0.9,5,0.2,4.8,3.4c-0.1,3.2-2.4,4.4-5.3,4.7c-2.2,0.2-4.7-1-4.7-2.9
				C271.8,409.4,274.1,407.6,276.9,406.9z"/>
			<path d="M237.6,427.1c1.1,1.1,4.3-1.5,4.1,2c-0.2,3.1-1.7,5.5-5.3,5.4c-2-0.1-5-0.3-4.5-2.9C232.3,429.4,234,426.6,237.6,427.1z"
				/>
			<path d="M222.9,459.9c-2.2,2.2-4.5,3.5-7.4,1.2c-0.9-0.7-1.7-2.1-0.5-2.8C217.9,456.6,220.6,457.5,222.9,459.9
				C223,460,222.9,459.9,222.9,459.9z"/>
		</g>
	</g>
	<g>
		<g>
			<path fill="#FFFFFF" d="M115,283.6l-19.6-12.2l26.4-8.4l94.8,60.6l-26.6,7.1l-50-31.4L101,309.4l51.5,31.4l-25.3,7.1L61.6,309
				l6.1-20.1l7.6,4.7L115,283.6z"/>
			<path fill="#FFFFFF" d="M171.9,252.2l19.4,12.8l33.4-7.9l24.8,16.9l-32.7,7.9l19.8,13.2l34-8.4l24.5,16.9L234.3,319l-91.7-59.6
				l63-17l2.2,1.5L171.9,252.2z"/>
			<path fill="#FFFFFF" d="M322.3,279.1l10.9,15.2l-30.5,7.4l-57-76.5l30.6-16.7l144.8,65l-32.3,7.5l-25.4-11.6L322.3,279.1z
				 M288.3,234.5l-0.3,0.1l21.3,27.3l25.4-5.8L288.3,234.5z"/>
			<path fill="#FFFFFF" d="M330.9,194.7l41.5-8.6c46.5,4.8,98.8,8.7,119.9,22.1c25.4,21.6,16.2,45.8-17.6,53.2l-44,9.9L330.9,194.7z
				 M440.4,247.4l7.1-1.6c19.2-4.2,27.8-14.3,9.5-29.2c-16.8-13.7-41.7-18.2-63.2-13.7l-7.8,1.6L440.4,247.4z"/>
		</g>
	</g>
	<path fill="#FFFFFF" d="M61.6,309l-3.2-1.8c0,0-0.1-2.8,0.8-6.7c0.8-3.9,1.6-5.2,1.6-5.2s0.8-3.4,5-8.4l1.9,1.9l2,12.7L61.6,309z"
		/>
	<path fill="#FFFFFF" d="M95.5,271.4l-2.3-1.6c0,0,4.8-2.4,13.1-4.9c0,0,5-1.9,13.3-3.6l2.3,1.8l-6.1,8.4H95.5z"/>
	<path fill="#FFFFFF" d="M142.5,259.5l-3.4-2.5c0,0,8.8-1.9,15.3-2.8c0,0,12.4-2.4,15.3-3c2.9-0.6,16.4-3.8,17.5-4.1
		c0,0,16.3-4.8,17.9-5.2l0.5,0.5l-17.9,5.7l-17.2,4L142.5,259.5z"/>
	<path fill="#FFFFFF" d="M245.6,225.3l-0.7-1c0,0,5-3,6.4-3.6c0,0,7-4.1,8.3-4.7c0,0,7.1-3.9,9.9-5.3c0,0,5.3-2.4,5.9-2.6l0.8,0.5
		l-11.9,11.2L245.6,225.3z"/>
	<path fill="#FFFFFF" d="M330.9,194.7l-4.6-4.2c-0.1-0.6,10.9-3.4,31.2-4.1c0,0,27.3-3.8,57.2,0.5c0,0,51.6,4.6,77.6,21.2l-10.1,3.2
		c0,0-82-19.4-100.2-13L330.9,194.7z"/>
	<g>
		<path fill="#231F20" d="M73.9,89.6c0,0,11.8-0.5,17.4,1.9c0.6,0.2-1.4,22.2-1.4,25.8c0,1.7-17.8,1.6-17.8,1.1
			c-0.6-6.6-4.4-9.1-8-9.1c-2,0-6.3,1-6.3,5.6c0,4.1,8.5,6.6,17,11.6c10.1,5.9,18.7,11.9,18.7,25.9c0,12.9-11.2,22.5-22.5,22.5
			c-11.7,0-15.9-4.4-17.6-6.4c-0.2,2.5-0.5,7.1-0.6,7.1c-0.6-0.2-17.2-1-17.2-1c-0.2-2.5-0.2-23-0.2-28.9c7.7-1.7,15.6-2,17.9-1.7
			c2,7.7,6.7,11.8,10.4,11.8c3.3,0,6.3-1.8,6.3-5.2c0-6.5-7.3-8.5-14.1-12.3c-10.1-5.3-19.9-11.2-19.9-27.4
			c0-11.3,9.3-20.5,24.6-20.5c6.6,0,10.7,2.5,12.6,4.6L73.9,89.6z"/>
		<path fill="#231F20" d="M100.1,160.1c0.3-0.2,7.3-1,7.6-1.3c0.3-0.2-0.1-31.2-0.7-44.3c-1.7,0.2-7.1,0.1-7.3-0.1
			c-0.2-0.2-1.7-19.6-1.3-19.9c0.5-0.3,23.2,0.1,23.6,0.1c0.3,0,27.5,39.6,28,39.7c0.5,0.1-0.5-23.7-0.5-23.7s-9.2-0.6-9.3-0.6
			s-1.9-15.6-1.1-15.8c0.8-0.2,36.3-0.6,36.3-0.2c0,0.3,0.9,15.5,0.2,15.5s-7.7,0.7-7.7,0.9s1.7,64.2,1.1,64.2
			c-0.6,0-17.2,1.4-17.8,0.7c-0.6-0.7-24.1-40.5-24.1-40.5s0,22.2,0.6,22.9c0.6,0.7,8,0.8,8,1.6c0,0.8,1.7,13.3,0.9,13.8
			c-0.8,0.5-36,1.9-35.6,1.4C101.4,173.9,99.8,160.3,100.1,160.1z"/>
		<path fill="#231F20" d="M185.6,157.2c0.7-0.7,7.1-0.6,7.1-0.6s1-45.6,0.6-45.9c-0.5-0.2-7.6,0.7-7.6,0.7s-1.7-17.2-1.5-18
			c0.2-0.8,60.5-0.6,60.5-0.6c2.7,3.5,0.8,26.3,0.8,26.6c0,0.3-15.6,0.5-16.4,0.3c-0.8-0.1-1.3-8.2-1.4-8.5
			c-0.1-0.3-12.6-0.6-13-0.2c-0.3,0.3-0.1,13,0.2,13.1c0.3,0.1,11.7,0.3,11.7,0.7c0,0.3,0.9,15.6,0.6,15.7
			c-0.3,0.1-12.5,0.6-12.7,0.9c-0.2,0.3-0.2,14.5-0.2,14.9c0,0.5,13.8-0.2,13.8-0.6s3.2-11.8,3.2-12.1c0-0.2,18.5,1.7,18.5,2
			c0,0.3-2,28.7-2.3,28.8c-0.2,0.1-62-0.8-62.5-0.5C184.5,174.5,184.9,157.9,185.6,157.2z"/>
		<path fill="#231F20" d="M256.5,175.2c-1.6-3.4-1.6-16.4-1.6-16.4l7.5-1.8c5-28.1,14.1-62.8,14.1-62.8c4.1-1.6,23.1,0.7,23.1,0.7
			l22.2,62.7h6.6v16.7c0,0-30.6,1.5-31.9,0.8c-1.1-0.8-2.3-16-1.6-16.3c0.7-0.3,5.8-0.3,5.8-0.3l-3.1-9.2l-15.4-0.2l-1.5,7.5l7.7,1
			c0,0,1.3,16,0.9,16L256.5,175.2z M288.7,119.7l-4.4,15.4l10.1-0.6L288.7,119.7z"/>
		<path fill="#231F20" d="M336,158.3c0.6,0,8.2-0.6,8.2-0.6l-0.2-47c0,0-8.9-0.7-9-0.9s0.3-14.6,0.5-14.9c0.1-0.3,30.3-1.6,30.8-1.1
			c0.6,0.5,0.3,16.3,0.1,16.6c-0.2,0.3-4.8,1.9-4.8,1.9V124c0,0,16.5-14.6,16.5-15.2c0-0.7-4.7-0.3-5-0.9c-0.2-0.6-1-13.5-1-14.1
			s33.3-0.5,33.3,0.2c0,0.7,0.3,14.6,0,15.1c-0.3,0.6-5.5,0.9-5.8,1.1c-0.3,0.2-15.6,14.8-16,15.6c-0.5,0.9,17.1,31.8,17.6,32
			c0.6,0.2,6.7,0.7,6.8,0.8c0.1,0.1,1,14.2,0.7,14.5c-0.3,0.2-33.6,1.9-34.1,0.5c-0.6-1.6-1.6-14.9-1.4-14.9c0.3,0,6.9,0.7,6.9,0.3
			c0-0.3-10-20.9-10.7-21.4c-0.7-0.5-7.2,6.3-7.6,6.8c-0.5,0.6,0.3,12.6,0.3,13.3c0,0.6,7.1,1.3,7.1,1.5c0,0.2-0.5,13.8-0.5,14.3
			c0,0.6-32.1,0.6-32.1,0.6C336.6,173.9,335.4,158.3,336,158.3z"/>
		<path fill="#231F20" d="M418.7,157.2c0.7-0.7,7.1-0.6,7.1-0.6s1-45.6,0.6-45.9c-0.5-0.2-7.6,0.7-7.6,0.7s-1.7-17.2-1.5-18
			c0.2-0.8,60.5-0.6,60.5-0.6c2.7,3.5,0.8,26.3,0.8,26.6c0,0.3-15.6,0.5-16.4,0.3c-0.8-0.1-1.3-8.2-1.4-8.5
			c-0.1-0.3-12.6-0.6-13-0.2c-0.3,0.3-0.1,13,0.2,13.1c0.3,0.1,11.7,0.3,11.7,0.7c0,0.3,0.9,15.6,0.6,15.7
			c-0.3,0.1-12.5,0.6-12.7,0.9c-0.2,0.3-0.2,14.5-0.2,14.9c0,0.5,13.8-0.2,13.8-0.6s3.2-11.8,3.2-12.1c0-0.2,18.5,1.7,18.5,2
			c0,0.3-2,28.7-2.3,28.8c-0.2,0.1-62-0.8-62.5-0.5C417.7,174.5,418.1,157.9,418.7,157.2z"/>
		<path fill="#231F20" d="M489.6,158.6c1.9,0,7.3-0.5,7.3-1.1v-45.6c0,0-7.3,0.2-7.5-0.3c-0.2-0.6,0.1-17.1,0.6-17.5
			c0.5-0.5,24.1,0.3,30.6,0.3c11,0,33,0.2,33,20.9c0,16-11,21.5-11,21.5l11,22.5c0,0,6.7-0.2,6.7,0c0,0.2,0.9,14.2,0.6,14.9
			c-0.3,0.7-34.3,0.6-34.5-0.5c-0.2-1-0.5-14.1,0.2-14.1c0.7,0,5.2-0.1,5.2-0.7c0-0.6-7.5-17.1-7.9-17.1s-8.3,0.9-8.6,0.9
			s-0.6,16.2,0.3,16.2s4.9,0.3,4.9,0.5s0.3,14.1,0,14.5c-0.3,0.3-30.4-0.3-30.4-0.3C490.2,173.9,487.7,158.6,489.6,158.6z
			 M515.7,125.7c0.7-0.3,14.6,1.7,14.6-8.8c0-6.8-14.5-5-14.5-5S515.7,125.9,515.7,125.7z"/>
	</g>
	<g>
		<g>
			<path d="M404.8,554.7c0.5,0,9.3,0,9.3,0.8s0.8,14.1,0.2,14.4c-0.5,0.2-35.8,1.2-37-0.5c-1.2-1.7-0.6-13.3-0.2-13.7
				c0.4-0.4,7.7-0.3,7.7-0.3l-1.5-44.3c0,0-6.2,0.2-6.7-0.3c-0.5-0.5,0.4-15.6,0.4-15.6l35.2-0.5l0.8,15.2l-9.6,1.8L404.8,554.7z"/>
			<path d="M422.1,557.1c0.3-0.2,6.9-1,7.2-1.2c0.3-0.2-0.1-29.4-0.6-41.7c-1.6,0.2-6.6,0.1-6.9-0.1c-0.2-0.2-1.6-18.4-1.2-18.7
				c0.4-0.3,21.9,0.1,22.2,0.1s25.9,37.3,26.4,37.4c0.4,0.1-0.4-22.3-0.4-22.3s-8.7-0.5-8.8-0.5s-1.8-14.7-1.1-14.9
				c0.8-0.2,34.2-0.5,34.2-0.2s0.9,14.6,0.2,14.6s-7.3,0.6-7.3,0.9c0,0.2,1.6,60.4,1.1,60.4s-16.2,1.3-16.7,0.6
				c-0.5-0.6-22.7-38.1-22.7-38.1s0,20.9,0.5,21.5c0.5,0.6,7.5,0.7,7.5,1.5s1.6,12.5,0.9,13c-0.8,0.4-33.8,1.8-33.5,1.3
				C423.3,570.1,421.8,557.3,422.1,557.1z"/>
			<path d="M560.3,497c0.8,0.5-0.5,26.7-0.5,26.7l-17.2,2.1c0,0-2.1-11-11.8-11c-5.6,0-10.3,5.9-10.3,17.8c0,12.6,7.6,17,13,17
				c6.9,0,12-5.8,13.1-7.3c4.8,5,14,13.3,14,13.3s-6.7,15.9-27.1,15.9c-16.7,0-34.9-13-34.9-38.9c0-27.1,16.2-37.1,31.2-37.1
				c8.1,0,12.6,4.5,12.6,4.5l1.2-6.3C543.5,493.9,555.7,494.1,560.3,497z"/>
		</g>
	</g>
</g>
</svg>
