<?xml version="1.0" encoding="utf-8"?>
<!-- Generator: Adobe Illustrator 17.1.0, SVG Export Plug-In . SVG Version: 6.00 Build 0)  -->
<!DOCTYPE svg PUBLIC "-//W3C//DTD SVG 1.1//EN" "http://www.w3.org/Graphics/SVG/1.1/DTD/svg11.dtd">
<svg version="1.1" id="Layer_1" xmlns="http://www.w3.org/2000/svg" xmlns:xlink="http://www.w3.org/1999/xlink" x="0px" y="0px"
	 viewBox="0 0 612 792" enable-background="new 0 0 612 792" xml:space="preserve">
<path fill="#231F20" d="M502.6,702H109.4C49,702,0,653,0,592.6V199.4C0,139,49,90,109.4,90h393.3C563,90,612,139,612,199.4v393.3
	C612,653,563,702,502.6,702z"/>
<path fill="#FFFFFF" d="M518.5,264.2c-15.6,6.9-32.4,11.6-50.1,13.7c18-10.8,31.8-27.9,38.3-48.2c-16.8,10-35.5,17.2-55.4,21.2
	c-15.9-16.9-38.6-27.5-63.6-27.5c-48.2,0-87.2,39-87.2,87.2c0,6.8,0.8,13.5,2.3,19.9c-72.5-3.6-136.7-38.3-179.7-91.1
	c-7.5,12.9-11.8,27.9-11.8,43.8c0,30.3,15.4,56.9,38.8,72.6c-14.3-0.5-27.7-4.4-39.5-10.9c0,0.4,0,0.7,0,1.1
	c0,42.2,30.1,77.5,69.9,85.5c-7.3,2-15,3.1-23,3.1c-5.6,0-11.1-0.5-16.4-1.6c11.1,34.6,43.3,59.9,81.5,60.6
	c-29.8,23.4-67.4,37.3-108.3,37.3c-7,0-14-0.4-20.8-1.2c38.6,24.7,84.4,39.2,133.7,39.2c160.4,0,248.1-132.9,248.1-248.1
	c0-3.8-0.1-7.5-0.3-11.3C492,297,506.8,281.7,518.5,264.2z"/>
</svg>
